<svg xmlns="http://www.w3.org/2000/svg" xmlns:xlink="http://www.w3.org/1999/xlink" width="40" zoomAndPan="magnify" viewBox="0 0 30 30.000001" height="40" preserveAspectRatio="xMidYMid meet" version="1.0"><defs><clipPath id="4f799fa307"><path d="M 0.484375 0 L 29.515625 0 L 29.515625 29.03125 L 0.484375 29.03125 Z M 0.484375 0 " clip-rule="nonzero"/></clipPath></defs><g clip-path="url(#4f799fa307)"><path fill="#20ab4b" d="M 29.515625 14.515625 C 29.515625 15.46875 29.425781 16.414062 29.238281 17.347656 C 29.050781 18.285156 28.777344 19.191406 28.414062 20.070312 C 28.046875 20.953125 27.601562 21.789062 27.070312 22.582031 C 26.542969 23.375 25.941406 24.109375 25.265625 24.78125 C 24.589844 25.457031 23.859375 26.058594 23.066406 26.585938 C 22.273438 27.117188 21.4375 27.5625 20.554688 27.929688 C 19.675781 28.292969 18.765625 28.570312 17.832031 28.753906 C 16.898438 28.941406 15.953125 29.035156 15 29.035156 C 14.046875 29.035156 13.101562 28.941406 12.167969 28.753906 C 11.234375 28.570312 10.324219 28.292969 9.445312 27.929688 C 8.5625 27.5625 7.726562 27.117188 6.933594 26.585938 C 6.140625 26.058594 5.410156 25.457031 4.734375 24.78125 C 4.058594 24.109375 3.457031 23.375 2.929688 22.582031 C 2.398438 21.789062 1.953125 20.953125 1.585938 20.070312 C 1.222656 19.191406 0.949219 18.285156 0.761719 17.347656 C 0.574219 16.414062 0.484375 15.46875 0.484375 14.515625 C 0.484375 13.5625 0.574219 12.617188 0.761719 11.683594 C 0.949219 10.75 1.222656 9.839844 1.585938 8.960938 C 1.953125 8.078125 2.398438 7.242188 2.929688 6.449219 C 3.457031 5.65625 4.058594 4.925781 4.734375 4.25 C 5.410156 3.578125 6.140625 2.976562 6.933594 2.445312 C 7.726562 1.914062 8.5625 1.46875 9.445312 1.105469 C 10.324219 0.738281 11.234375 0.464844 12.167969 0.277344 C 13.101562 0.0898438 14.046875 0 15 0 C 15.953125 0 16.898438 0.0898438 17.832031 0.277344 C 18.765625 0.464844 19.675781 0.738281 20.554688 1.105469 C 21.4375 1.46875 22.273438 1.914062 23.066406 2.445312 C 23.859375 2.976562 24.589844 3.578125 25.265625 4.25 C 25.941406 4.925781 26.542969 5.65625 27.070312 6.449219 C 27.601562 7.242188 28.046875 8.078125 28.414062 8.960938 C 28.777344 9.839844 29.050781 10.75 29.238281 11.683594 C 29.425781 12.617188 29.515625 13.5625 29.515625 14.515625 Z M 29.515625 14.515625 " fill-opacity="1" fill-rule="nonzero"/></g><path fill="#ffffff" d="M 15 23.4375 C 13.417969 23.4375 11.9375 23.046875 10.566406 22.257812 L 6.40625 23.371094 L 7.488281 19.332031 C 7.136719 18.777344 6.84375 18.191406 6.621094 17.574219 C 6.394531 16.957031 6.238281 16.324219 6.152344 15.671875 C 6.066406 15.019531 6.054688 14.367188 6.113281 13.714844 C 6.171875 13.058594 6.304688 12.417969 6.503906 11.792969 C 6.703125 11.167969 6.972656 10.570312 7.304688 10.003906 C 7.636719 9.4375 8.027344 8.914062 8.472656 8.433594 C 8.921875 7.949219 9.417969 7.523438 9.960938 7.152344 C 10.503906 6.78125 11.078125 6.476562 11.6875 6.230469 C 12.300781 5.988281 12.929688 5.8125 13.578125 5.707031 C 14.226562 5.601562 14.878906 5.570312 15.535156 5.609375 C 16.191406 5.648438 16.835938 5.761719 17.464844 5.941406 C 18.097656 6.125 18.703125 6.371094 19.277344 6.6875 C 19.855469 7.003906 20.390625 7.375 20.882812 7.808594 C 21.378906 8.242188 21.820312 8.726562 22.207031 9.257812 C 22.59375 9.789062 22.917969 10.355469 23.179688 10.957031 C 23.441406 11.558594 23.636719 12.183594 23.761719 12.828125 C 23.882812 13.476562 23.9375 14.125 23.917969 14.78125 C 23.898438 15.441406 23.804688 16.085938 23.644531 16.722656 C 23.480469 17.359375 23.25 17.972656 22.953125 18.558594 C 22.65625 19.144531 22.296875 19.691406 21.878906 20.195312 C 21.460938 20.703125 20.992188 21.15625 20.472656 21.5625 C 19.953125 21.964844 19.394531 22.304688 18.800781 22.585938 C 18.207031 22.867188 17.589844 23.078125 16.949219 23.222656 C 16.304688 23.363281 15.65625 23.4375 15 23.4375 Z M 10.867188 20.222656 L 11.21875 20.445312 C 11.460938 20.601562 11.714844 20.742188 11.972656 20.867188 C 12.234375 20.992188 12.503906 21.097656 12.777344 21.1875 C 13.050781 21.28125 13.328125 21.355469 13.609375 21.410156 C 13.894531 21.46875 14.179688 21.507812 14.46875 21.53125 C 14.753906 21.550781 15.042969 21.558594 15.332031 21.542969 C 15.621094 21.53125 15.90625 21.5 16.191406 21.449219 C 16.476562 21.402344 16.757812 21.335938 17.03125 21.25 C 17.308594 21.167969 17.578125 21.066406 17.84375 20.953125 C 18.105469 20.835938 18.363281 20.703125 18.609375 20.554688 C 18.859375 20.40625 19.097656 20.242188 19.324219 20.066406 C 19.550781 19.890625 19.769531 19.699219 19.972656 19.496094 C 20.175781 19.289062 20.367188 19.074219 20.546875 18.847656 C 20.722656 18.621094 20.886719 18.382812 21.035156 18.136719 C 21.183594 17.886719 21.316406 17.632812 21.433594 17.367188 C 21.550781 17.105469 21.652344 16.832031 21.734375 16.558594 C 21.816406 16.28125 21.886719 16 21.933594 15.714844 C 21.984375 15.433594 22.015625 15.144531 22.027344 14.859375 C 22.042969 14.570312 22.039062 14.28125 22.019531 13.992188 C 21.996094 13.707031 21.957031 13.417969 21.902344 13.136719 C 21.84375 12.855469 21.769531 12.574219 21.679688 12.300781 C 21.589844 12.027344 21.480469 11.761719 21.359375 11.5 C 21.234375 11.238281 21.09375 10.984375 20.941406 10.742188 C 20.785156 10.5 20.617188 10.265625 20.433594 10.042969 C 20.25 9.820312 20.050781 9.609375 19.84375 9.410156 C 19.632812 9.210938 19.414062 9.027344 19.179688 8.855469 C 18.949219 8.683594 18.707031 8.527344 18.453125 8.386719 C 18.203125 8.242188 17.945312 8.117188 17.675781 8.007812 C 17.410156 7.898438 17.136719 7.804688 16.859375 7.730469 C 16.582031 7.652344 16.296875 7.59375 16.011719 7.554688 C 15.726562 7.511719 15.441406 7.488281 15.152344 7.480469 C 14.863281 7.476562 14.574219 7.488281 14.289062 7.515625 C 14 7.546875 13.714844 7.59375 13.433594 7.65625 C 13.152344 7.722656 12.875 7.800781 12.605469 7.902344 C 12.335938 8 12.070312 8.113281 11.8125 8.246094 C 11.554688 8.375 11.308594 8.523438 11.066406 8.683594 C 10.828125 8.84375 10.601562 9.019531 10.382812 9.210938 C 10.164062 9.398438 9.960938 9.601562 9.765625 9.816406 C 9.574219 10.03125 9.394531 10.257812 9.230469 10.492188 C 9.0625 10.730469 8.914062 10.976562 8.78125 11.230469 C 8.644531 11.488281 8.527344 11.75 8.425781 12.019531 C 8.320312 12.289062 8.238281 12.566406 8.167969 12.84375 C 8.097656 13.125 8.046875 13.410156 8.015625 13.695312 C 7.980469 13.984375 7.964844 14.269531 7.96875 14.558594 C 7.96875 14.847656 7.988281 15.136719 8.023438 15.421875 C 8.0625 15.707031 8.117188 15.992188 8.1875 16.269531 C 8.261719 16.550781 8.351562 16.824219 8.457031 17.09375 C 8.5625 17.359375 8.683594 17.621094 8.820312 17.875 C 8.960938 18.128906 9.113281 18.375 9.28125 18.609375 L 9.539062 18.972656 L 9.078125 20.703125 Z M 10.867188 20.222656 " fill-opacity="1" fill-rule="nonzero"/><path fill="#20ab4b" d="M 15 6.539062 C 14.265625 6.539062 13.546875 6.636719 12.839844 6.835938 C 12.136719 7.035156 11.46875 7.324219 10.84375 7.707031 C 10.21875 8.089844 9.65625 8.550781 9.15625 9.085938 C 8.65625 9.621094 8.242188 10.21875 7.90625 10.871094 C 7.570312 11.523438 7.328125 12.207031 7.183594 12.925781 C 7.039062 13.644531 6.992188 14.367188 7.042969 15.097656 C 7.097656 15.832031 7.25 16.542969 7.5 17.230469 C 7.75 17.917969 8.085938 18.5625 8.511719 19.160156 L 7.742188 22.039062 L 10.710938 21.242188 C 10.972656 21.410156 11.238281 21.558594 11.515625 21.695312 C 11.796875 21.828125 12.078125 21.945312 12.371094 22.046875 C 12.664062 22.148438 12.957031 22.234375 13.257812 22.300781 C 13.5625 22.367188 13.863281 22.417969 14.171875 22.449219 C 14.480469 22.484375 14.785156 22.496094 15.09375 22.492188 C 15.402344 22.488281 15.710938 22.46875 16.015625 22.429688 C 16.324219 22.390625 16.625 22.332031 16.925781 22.257812 C 17.222656 22.183594 17.519531 22.09375 17.808594 21.984375 C 18.097656 21.875 18.378906 21.75 18.652344 21.609375 C 18.925781 21.46875 19.191406 21.3125 19.449219 21.136719 C 19.703125 20.964844 19.949219 20.78125 20.183594 20.578125 C 20.417969 20.378906 20.640625 20.164062 20.851562 19.941406 C 21.058594 19.714844 21.257812 19.476562 21.4375 19.226562 C 21.621094 18.976562 21.789062 18.71875 21.941406 18.449219 C 22.09375 18.183594 22.226562 17.90625 22.347656 17.621094 C 22.46875 17.335938 22.570312 17.046875 22.65625 16.75 C 22.746094 16.453125 22.8125 16.152344 22.863281 15.851562 C 22.917969 15.546875 22.949219 15.238281 22.964844 14.929688 C 22.984375 14.625 22.980469 14.316406 22.960938 14.007812 C 22.941406 13.699219 22.902344 13.394531 22.847656 13.089844 C 22.792969 12.785156 22.722656 12.488281 22.632812 12.191406 C 22.539062 11.894531 22.433594 11.609375 22.3125 11.324219 C 22.1875 11.042969 22.046875 10.765625 21.894531 10.5 C 21.738281 10.234375 21.566406 9.976562 21.382812 9.730469 C 21.195312 9.484375 20.996094 9.25 20.785156 9.023438 C 20.574219 8.800781 20.347656 8.589844 20.113281 8.390625 C 19.875 8.195312 19.628906 8.011719 19.367188 7.84375 C 19.109375 7.671875 18.84375 7.519531 18.566406 7.382812 C 18.292969 7.242188 18.007812 7.121094 17.71875 7.015625 C 17.429688 6.910156 17.132812 6.824219 16.832031 6.753906 C 16.53125 6.683594 16.230469 6.628906 15.921875 6.59375 C 15.617188 6.558594 15.308594 6.539062 15 6.539062 Z M 15 6.539062 " fill-opacity="1" fill-rule="nonzero"/><path fill="#ffffff" d="M 19.519531 18.070312 C 19.667969 17.710938 19.742188 17 19.367188 16.78125 C 19.089844 16.621094 18.757812 16.523438 18.460938 16.394531 C 18.125 16.253906 17.789062 16.078125 17.445312 15.960938 C 16.957031 15.796875 16.648438 16.226562 16.332031 16.527344 C 16.261719 16.589844 16.117188 16.789062 16.011719 16.8125 C 15.882812 16.84375 15.679688 16.667969 15.570312 16.601562 C 15.363281 16.480469 15.164062 16.347656 14.972656 16.207031 C 14.371094 15.765625 13.84375 15.246094 13.394531 14.648438 C 13.175781 14.359375 12.929688 14.035156 12.785156 13.703125 C 12.6875 13.480469 12.820312 13.414062 12.972656 13.253906 C 13.277344 12.929688 13.742188 12.597656 13.582031 12.101562 C 13.476562 11.773438 13.304688 11.457031 13.167969 11.136719 C 13.035156 10.824219 12.921875 10.484375 12.761719 10.179688 C 12.550781 9.785156 11.972656 9.855469 11.617188 9.972656 C 11.453125 10.019531 11.304688 10.097656 11.167969 10.207031 C 10.957031 10.398438 10.78125 10.617188 10.648438 10.871094 C 10.175781 11.691406 10.328125 12.941406 10.78125 13.726562 C 11.417969 14.832031 11.992188 15.921875 12.925781 16.824219 C 13.839844 17.707031 14.988281 18.371094 16.121094 18.933594 C 16.660156 19.199219 17.273438 19.152344 17.855469 19.140625 C 18.453125 19.125 19.285156 18.65625 19.519531 18.070312 Z M 19.519531 18.070312 " fill-opacity="1" fill-rule="nonzero"/></svg>